<svg xmlns="http://www.w3.org/2000/svg" viewBox="0 0 1280 800" width="1280" height="800" role="img">
  <defs>
    <linearGradient id="bg" x1="0" y1="0" x2="1" y2="1">
      <stop offset="0" stop-color="#0e1420"/>
      <stop offset="1" stop-color="#0b1018"/>
    </linearGradient>
    <linearGradient id="glow" x1="0" y1="0" x2="0" y2="1">
      <stop offset="0" stop-color="#2fb8ac" stop-opacity="0.45"/>
      <stop offset="1" stop-color="#2fb8ac" stop-opacity="0"/>
    </linearGradient>
    <linearGradient id="bar" x1="0" y1="0" x2="0" y2="1">
      <stop offset="0" stop-color="#2fb8ac"/>
      <stop offset="1" stop-color="#2fb8ac" stop-opacity="0.35"/>
    </linearGradient>
  </defs>
  
  <rect width="1280" height="800" rx="0" fill="url(#bg)"/>
  <rect x="0" y="0" width="1280" height="56" fill="#161e2e"/>
  <circle cx="32" cy="28" r="6" fill="#3d4863"/>
  <circle cx="54" cy="28" r="6" fill="#3d4863"/>
  <circle cx="76" cy="28" r="6" fill="#3d4863"/>
  <rect x="108" y="18" width="260" height="20" rx="10" fill="#1c2637"/>
  <text x="124" y="33" font-family="ui-sans-serif,system-ui,sans-serif" font-size="12" fill="#8d9ab6">health · patient portal</text>
  <rect x="0" y="56" width="212" height="744" fill="#161e2e"/>
  <rect x="28" y="88" width="18" height="18" rx="5" fill="#2fb8ac"/>
  <rect x="56" y="92" width="88" height="10" rx="5" fill="#e8edf7" opacity="0.85"/>

  <rect x="36" y="148" width="12" height="12" rx="3" fill="#8d9ab6" opacity="0.5"/>
  <rect x="58" y="150" width="104" height="9" rx="4.5" fill="#8d9ab6" opacity="0.42"/>
  <rect x="20" y="186" width="172" height="34" rx="9" fill="#2fb8ac" opacity="0.16"/>
  <rect x="20" y="186" width="3" height="34" rx="2" fill="#2fb8ac"/>
  <rect x="36" y="196" width="12" height="12" rx="3" fill="#2fb8ac" opacity="1"/>
  <rect x="58" y="198" width="97" height="9" rx="4.5" fill="#e8edf7" opacity="0.9"/>
  <rect x="36" y="244" width="12" height="12" rx="3" fill="#8d9ab6" opacity="0.5"/>
  <rect x="58" y="246" width="90" height="9" rx="4.5" fill="#8d9ab6" opacity="0.42"/>
  <rect x="36" y="292" width="12" height="12" rx="3" fill="#8d9ab6" opacity="0.5"/>
  <rect x="58" y="294" width="83" height="9" rx="4.5" fill="#8d9ab6" opacity="0.42"/>
  <rect x="36" y="340" width="12" height="12" rx="3" fill="#8d9ab6" opacity="0.5"/>
  <rect x="58" y="342" width="76" height="9" rx="4.5" fill="#8d9ab6" opacity="0.42"/>
  <rect x="36" y="388" width="12" height="12" rx="3" fill="#8d9ab6" opacity="0.5"/>
  <rect x="58" y="390" width="69" height="9" rx="4.5" fill="#8d9ab6" opacity="0.42"/>
  <rect x="244" y="88" width="240" height="18" rx="9" fill="#e8edf7" opacity="0.9"/>
  <rect x="244" y="118" width="280" height="9" rx="4.5" fill="#8d9ab6" opacity="0.35"/>
  <rect x="244" y="152" width="232" height="470" rx="30" fill="#161e2e" stroke="#26314a"/>
  <rect x="316" y="168" width="88" height="10" rx="5" fill="#1c2637"/>
  <rect x="264" y="196" width="192" height="120" rx="16" fill="#2fb8ac" opacity="0.22"/>
  <rect x="282" y="224" width="120" height="14" rx="7" fill="#e8edf7" opacity="0.85"/>
  <rect x="282" y="250" width="84" height="9" rx="4.5" fill="#8d9ab6" opacity="0.45"/>
  <rect x="282" y="272" width="76" height="22" rx="11" fill="#2fb8ac"/>
  <rect x="264" y="336" width="192" height="56" rx="14" fill="#1c2637"/>
  <circle cx="290" cy="364" r="13" fill="#2fb8ac" opacity="0.85"/>
  <rect x="314" y="353" width="96" height="9" rx="4.5" fill="#8d9ab6" opacity="0.5"/>
  <rect x="314" y="369" width="58" height="9" rx="4.5" fill="#8d9ab6" opacity="0.25"/>
  <rect x="264" y="404" width="192" height="56" rx="14" fill="#1c2637"/>
  <circle cx="290" cy="432" r="13" fill="#2fb8ac" opacity="0.70"/>
  <rect x="314" y="421" width="84" height="9" rx="4.5" fill="#8d9ab6" opacity="0.5"/>
  <rect x="314" y="437" width="58" height="9" rx="4.5" fill="#8d9ab6" opacity="0.25"/>
  <rect x="264" y="472" width="192" height="56" rx="14" fill="#1c2637"/>
  <circle cx="290" cy="500" r="13" fill="#2fb8ac" opacity="0.55"/>
  <rect x="314" y="489" width="72" height="9" rx="4.5" fill="#8d9ab6" opacity="0.5"/>
  <rect x="314" y="505" width="58" height="9" rx="4.5" fill="#8d9ab6" opacity="0.25"/>
  <rect x="264" y="540" width="192" height="56" rx="14" fill="#1c2637"/>
  <circle cx="290" cy="568" r="13" fill="#2fb8ac" opacity="0.40"/>
  <rect x="314" y="557" width="60" height="9" rx="4.5" fill="#8d9ab6" opacity="0.5"/>
  <rect x="314" y="573" width="58" height="9" rx="4.5" fill="#8d9ab6" opacity="0.25"/>
  <rect x="508" y="152" width="412" height="470" rx="16" fill="#161e2e" stroke="#26314a"/>
  <rect x="532" y="180" width="110" height="10" rx="5.0" fill="#8d9ab6" opacity="0.5"/>
  <rect x="528" y="210" width="372" height="52" rx="12" fill="#1c2637"/>
  <circle cx="556" cy="236" r="14" fill="#2fb8ac" opacity="0.90"/>
  <rect x="582" y="225" width="150" height="9" rx="4.5" fill="#8d9ab6" opacity="0.5"/>
  <rect x="582" y="241" width="90" height="9" rx="4.5" fill="#8d9ab6" opacity="0.28"/>
  <rect x="824" y="228" width="64" height="16" rx="8" fill="#2fb8ac" opacity="0.2"/>
  <rect x="528" y="272" width="372" height="52" rx="12" fill="#1c2637"/>
  <circle cx="556" cy="298" r="14" fill="#2fb8ac" opacity="0.74"/>
  <rect x="582" y="287" width="132" height="9" rx="4.5" fill="#8d9ab6" opacity="0.5"/>
  <rect x="582" y="303" width="80" height="9" rx="4.5" fill="#8d9ab6" opacity="0.28"/>
  <rect x="824" y="290" width="64" height="16" rx="8" fill="#2fb8ac" opacity="0.2"/>
  <rect x="528" y="334" width="372" height="52" rx="12" fill="#1c2637"/>
  <circle cx="556" cy="360" r="14" fill="#2fb8ac" opacity="0.58"/>
  <rect x="582" y="349" width="114" height="9" rx="4.5" fill="#8d9ab6" opacity="0.5"/>
  <rect x="582" y="365" width="70" height="9" rx="4.5" fill="#8d9ab6" opacity="0.28"/>
  <rect x="824" y="352" width="64" height="16" rx="8" fill="#2fb8ac" opacity="0.2"/>
  <rect x="528" y="396" width="372" height="52" rx="12" fill="#1c2637"/>
  <circle cx="556" cy="422" r="14" fill="#2fb8ac" opacity="0.42"/>
  <rect x="582" y="411" width="96" height="9" rx="4.5" fill="#8d9ab6" opacity="0.5"/>
  <rect x="582" y="427" width="60" height="9" rx="4.5" fill="#8d9ab6" opacity="0.28"/>
  <rect x="824" y="414" width="64" height="16" rx="8" fill="#2fb8ac" opacity="0.2"/>
  <rect x="528" y="458" width="372" height="52" rx="12" fill="#1c2637"/>
  <circle cx="556" cy="484" r="14" fill="#2fb8ac" opacity="0.26"/>
  <rect x="582" y="473" width="78" height="9" rx="4.5" fill="#8d9ab6" opacity="0.5"/>
  <rect x="582" y="489" width="50" height="9" rx="4.5" fill="#8d9ab6" opacity="0.28"/>
  <rect x="824" y="476" width="64" height="16" rx="8" fill="#2fb8ac" opacity="0.2"/>
  <rect x="528" y="520" width="372" height="52" rx="12" fill="#1c2637"/>
  <circle cx="556" cy="546" r="14" fill="#2fb8ac" opacity="0.10"/>
  <rect x="582" y="535" width="60" height="9" rx="4.5" fill="#8d9ab6" opacity="0.5"/>
  <rect x="582" y="551" width="40" height="9" rx="4.5" fill="#8d9ab6" opacity="0.28"/>
  <rect x="824" y="538" width="64" height="16" rx="8" fill="#2fb8ac" opacity="0.2"/>
  <rect x="944" y="152" width="304" height="104" rx="16" fill="#161e2e" stroke="#26314a"/>
  <rect x="964" y="176" width="64" height="9" rx="4.5" fill="#8d9ab6" opacity="0.4"/>
  <rect x="964" y="198" width="96" height="22" rx="6" fill="#e8edf7" opacity="0.9"/>
  <rect x="964" y="232" width="204" height="6" rx="3" fill="#2fb8ac" opacity="0.55"/>
  <rect x="944" y="272" width="304" height="104" rx="16" fill="#161e2e" stroke="#26314a"/>
  <rect x="964" y="296" width="64" height="9" rx="4.5" fill="#8d9ab6" opacity="0.4"/>
  <rect x="964" y="318" width="96" height="22" rx="6" fill="#e8edf7" opacity="0.9"/>
  <rect x="964" y="352" width="204" height="6" rx="3" fill="#2fb8ac" opacity="0.55"/>
  <rect x="944" y="392" width="304" height="230" rx="16" fill="#161e2e" stroke="#26314a"/>
  <rect x="968" y="420" width="120" height="10" rx="5.0" fill="#8d9ab6" opacity="0.5"/>
  <rect x="968.0" y="536.4" width="50.5" height="53.6" rx="7" fill="url(#bar)"/>
  <rect x="1036.5" y="493.5" width="50.5" height="96.5" rx="7" fill="url(#bar)"/>
  <rect x="1105.0" y="516.3" width="50.5" height="73.7" rx="7" fill="url(#bar)"/>
  <rect x="1173.5" y="472.1" width="50.5" height="117.9" rx="7" fill="url(#bar)"/>
  <rect x="244" y="646" width="1004" height="122" rx="16" fill="#161e2e" stroke="#26314a"/>
  <rect x="268" y="674" width="140" height="10" rx="5.0" fill="#8d9ab6" opacity="0.5"/>
  <rect x="268" y="702.0" width="956" height="1" fill="#26314a"/>
  <rect x="268" y="709.3" width="956" height="1" fill="#26314a"/>
  <rect x="268" y="716.7" width="956" height="1" fill="#26314a"/>
  <rect x="268" y="724.0" width="956" height="1" fill="#26314a"/>
  <path d="M268.0 728.5 L459.2 723.0 L650.4 725.6 L841.6 719.5 L1032.8 720.8 L1224.0 715.3 L1224.0 734 L268.0 734 Z" fill="url(#glow)"/>
  <path d="M268.0 728.5 L459.2 723.0 L650.4 725.6 L841.6 719.5 L1032.8 720.8 L1224.0 715.3" fill="none" stroke="#2fb8ac" stroke-width="4" stroke-linecap="round" stroke-linejoin="round"/>
  <circle cx="268.0" cy="728.5" r="5" fill="#2fb8ac"/>
  <circle cx="650.4" cy="725.6" r="5" fill="#2fb8ac"/>
  <circle cx="1032.8" cy="720.8" r="5" fill="#2fb8ac"/>
</svg>
